# xmcd
#
# Track frame offsets:
# 150
# 12137
# 24887
# 34337
# 44912
# 60212
# 71087
# 84062
# 99212
# 112187
#
# Disc length: 1623 seconds
#
#
# Revision: 3
# Processed by: cddbd v1.5.1PL2 Copyright (c) Steve Scherf et al.
# Submitted via: FreeRIP 2.945 
#
DISCID=7406550a
DTITLE=Jim Reeves - Best Of The Best Of
DYEAR=1997
DGENRE=Country
TTITLE0=Am I Losing You
TTITLE1=Four Walls
TTITLE2=Billy Bayou
TTITLE3=He'll Have To Go
TTITLE4=The Blizzard
TTITLE5=I Guess I'm Crazy
TTITLE6=Distant Drums
TTITLE7=Blue Side Of Lonesome
TTITLE8=I Fall To Pices (With Patsy Cline)
TTITLE9=I Won't Come In While He's There
EXTD=I N G Inc.
EXTT0=
EXTT1=
EXTT2=
EXTT3=
EXTT4=
EXTT5=
EXTT6=
EXTT7=
EXTT8=
EXTT9=
PLAYORDER=
